<svg xmlns="http://www.w3.org/2000/svg" width="71" height="71" viewBox="0 0 71 71"><g><g><path fill="#fff" d="M35.5 0C55.106 0 71 15.894 71 35.5S55.106 71 35.5 71 0 55.106 0 35.5 15.894 0 35.5 0z"/></g><g><path fill="#3c3c3c" d="M28.722 58a5.107 5.107 0 0 1-3.635-1.505l-9.5-9.496a5.103 5.103 0 0 1-1.505-3.632c0-1.373.535-2.663 1.506-3.633l3.293-3.292 5.522 5.52-2.932 2.93a.484.484 0 0 0 0 .683l2.143 2.142.168-.507a5.138 5.138 0 0 1 3.957-3.43l4.517-.821v-.056a7.25 7.25 0 0 1-3.348-4.672 3.043 3.043 0 0 1-2.275-2.934V30.38c0-5.157 4.198-9.353 9.358-9.353s9.357 4.196 9.357 9.353v8.431a2.33 2.33 0 0 1-2.329 2.328h-1.31a7.244 7.244 0 0 1-1.984 1.765v.056l4.517.821a5.14 5.14 0 0 1 3.957 3.43l1.723 5.17H35.066l.854.851-3.59 3.288A5.068 5.068 0 0 1 28.723 58zm-11.6-17.193l-.231.231a3.272 3.272 0 0 0-.965 2.33c0 .879.343 1.706.965 2.328l9.5 9.495c.623.622 1.45.965 2.33.965.879 0 1.706-.343 2.33-.964l.006-.007.234-.214-2.927-2.926c-.407.355-.95.555-1.512.555a2.317 2.317 0 0 1-1.647-.681l-5.04-5.039a2.332 2.332 0 0 1-.125-3.156zm12.612 9.998l2.919 2.918.598-.548-2.915-2.915zm-4.663-1.63l1.44 1.438c.086.086.21.136.342.136.131 0 .255-.05.34-.135l.009-.008 3.197-2.891 2.821 2.82h14.143l-.915-2.741a3.295 3.295 0 0 0-2.537-2.2l-4.799-.872-3.121 3.12-3.123-3.12-4.8.872a3.295 3.295 0 0 0-2.536 2.199zm9.49-5.37l1.43 1.43 1.43-1.43c-.941.19-1.92.19-2.86 0zm-16.134-4.303l2.913 2.912.453-.453-2.913-2.911zm12.16-6.138v3.339a5.409 5.409 0 0 0 5.404 5.4c1.1 0 2.17-.339 3.07-.965h-3.29v-1.845h4.954a5.381 5.381 0 0 0 .669-2.59v-3.339a9.262 9.262 0 0 1-5.403-2.398 9.266 9.266 0 0 1-5.404 2.398zm12.17 5.93h.262a.484.484 0 0 0 .484-.484v-.733a2.819 2.819 0 0 1-.43.154 7.214 7.214 0 0 1-.317 1.062zm.482-4.737v1.48c.17-.206.264-.464.264-.74 0-.275-.095-.533-.264-.74zm-14.497 0a1.162 1.162 0 0 0-.264.74c0 .276.095.534.264.74zm7.249-11.687c-4.143 0-7.513 3.369-7.513 7.51v2.141c.087-.037.175-.07.264-.099v-.857h.923c2.019 0 3.918-.787 5.347-2.214l.979-.978.978.978a7.517 7.517 0 0 0 5.348 2.214h.922v.857c.09.029.177.062.264.099v-2.142c0-4.14-3.37-7.509-7.512-7.509zm10.691 5.87l.766-4.465h-1.617a2.33 2.33 0 0 1-2.328-2.327v-5.62A2.33 2.33 0 0 1 45.83 14h9.84A2.33 2.33 0 0 1 58 16.327v5.621a2.33 2.33 0 0 1-2.328 2.327h-1.844zm-.851-12.896a.484.484 0 0 0-.483.483v5.621c0 .266.217.483.483.483h3.805l-.44 2.562 4.102-2.562h2.374a.484.484 0 0 0 .483-.483v-5.62a.484.484 0 0 0-.483-.484zm9.357 2.81h-8.874V16.81h8.874zm-2.811 2.811h-6.063v-1.844h6.063zm2.811 0h-1.845v-1.844h1.845zm-38.491 12.99L14 29.963l1.582-.949 1.171 1.951a19.963 19.963 0 0 1 6.852-10.527 19.954 19.954 0 0 1 12.386-4.33c2.01 0 3.994.298 5.896.888l.21.065-.547 1.761-.21-.065a18.064 18.064 0 0 0-5.35-.805 17.994 17.994 0 0 0-17.38 13.204l1.63-.978.95 1.581zm34.617 14.24l-1.433-1.161.138-.17a18.084 18.084 0 0 0 4.027-11.364c0-1.834-.275-3.641-.818-5.379l-1.095 1.826-1.582-.95 2.695-4.492 4.494 2.696-.95 1.582-1.754-1.053a19.82 19.82 0 0 1 .855 5.77 19.93 19.93 0 0 1-4.44 12.525z"/></g></g></svg>